<?xml version="1.0" encoding="UTF-8" standalone="no"?>
<svg
   xmlns:dc="http://purl.org/dc/elements/1.1/"
   xmlns:cc="http://creativecommons.org/ns#"
   xmlns:rdf="http://www.w3.org/1999/02/22-rdf-syntax-ns#"
   xmlns:svg="http://www.w3.org/2000/svg"
   xmlns="http://www.w3.org/2000/svg"
   viewBox="0 0 625.33331 280"
   height="280"
   width="625.33331"
   xml:space="preserve"
   id="svg2"
   version="1.1"><metadata
     id="metadata8"><rdf:RDF><cc:Work
         rdf:about=""><dc:format>image/svg+xml</dc:format><dc:type
           rdf:resource="http://purl.org/dc/dcmitype/StillImage" /></cc:Work></rdf:RDF></metadata><defs
     id="defs6"><clipPath
       id="clipPath18"
       clipPathUnits="userSpaceOnUse"><path
         id="path16"
         d="M 0,210 H 469 V 0 H 0 Z" /></clipPath></defs><g
     transform="matrix(1.3333333,0,0,-1.3333333,0,280)"
     id="g10"><g
       id="g12"><g
         clip-path="url(#clipPath18)"
         id="g14"><g
           transform="translate(53.5005,137.4678)"
           id="g20"><path
             id="path22"
             style="fill:#546512;fill-opacity:1;fill-rule:nonzero;stroke:none"
             d="m 0,0 h 6.737 v -13.396 h 0.089 c 0.67,1.169 1.383,2.248 2.097,3.327 L 15.705,0 h 8.388 L 14.144,-12.901 24.583,-30.298 H 16.687 L 9.28,-17.217 6.737,-20.408 v -9.89 H 0 Z" /></g><g
           transform="translate(98.7852,119.9814)"
           id="g24"><path
             id="path26"
             style="fill:#546512;fill-opacity:1;fill-rule:nonzero;stroke:none"
             d="M 0,0 H -11.065 V -7.192 H 1.293 v -5.62 h -19.14 V 17.486 H 0.669 V 11.867 H -11.065 V 5.574 L 0,5.574 Z" /></g><g
           transform="translate(104.7168,107.1699)"
           id="g28"><path
             id="path30"
             style="fill:#546512;fill-opacity:1;fill-rule:nonzero;stroke:none"
             d="m 0,0 v 30.298 h 7.942 l 6.246,-11.104 c 1.785,-3.191 3.525,-6.967 4.909,-10.383 h 0.089 c -0.402,4.001 -0.536,8.091 -0.536,12.676 v 8.811 h 6.246 V 0 H 17.758 L 11.333,11.688 C 9.549,14.969 7.541,18.835 6.113,22.387 H 5.935 C 6.157,18.341 6.247,14.07 6.247,9.125 V 0 Z" /></g><g
           transform="translate(142.4609,107.1699)"
           id="g32"><path
             id="path34"
             style="fill:#546512;fill-opacity:1;fill-rule:nonzero;stroke:none"
             d="m 0,0 v 12.407 l -9.504,17.891 h 7.809 l 3.033,-7.282 c 0.937,-2.203 1.606,-3.822 2.32,-5.799 h 0.089 c 0.67,1.887 1.384,3.64 2.275,5.799 l 3.035,7.282 h 7.63 L 6.781,12.632 V 0 Z" /></g><g
           transform="translate(172.624,120.0713)"
           id="g36"><path
             id="path38"
             style="fill:#546512;fill-opacity:1;fill-rule:nonzero;stroke:none"
             d="m 0,0 -1.874,6.428 c -0.49,1.799 -1.025,4.091 -1.472,5.844 H -3.479 C -3.882,10.474 -4.372,8.182 -4.818,6.428 L -6.647,0 Z m -7.629,-5.125 -2.098,-7.776 h -7.048 l 9.19,30.297 h 8.879 l 9.369,-30.297 H 3.347 l -2.321,7.776 z" /></g><g
           transform="translate(12.1382,53.0449)"
           id="g40"><path
             id="path42"
             style="fill:#546512;fill-opacity:1;fill-rule:nonzero;stroke:none"
             d="M 0,0 -7.139,30.298 H 0.134 L 2.409,17.846 C 3.079,14.205 3.703,10.294 4.194,7.192 h 0.089 c 0.491,3.327 1.205,6.968 1.963,10.744 L 8.79,30.298 h 7.227 l 2.409,-12.767 c 0.67,-3.551 1.16,-6.788 1.607,-10.159 h 0.089 c 0.446,3.371 1.115,6.923 1.74,10.564 l 2.454,12.362 h 6.915 L 23.468,0 h -7.362 l -2.543,13.036 c -0.58,3.057 -1.07,5.889 -1.427,9.351 h -0.09 C 11.511,18.97 11.02,16.093 10.306,13.036 L 7.451,0 Z" /></g><path
           id="path44"
           style="fill:#546512;fill-opacity:1;fill-rule:nonzero;stroke:none"
           d="m 53.718,53.045 h -6.782 v 30.298 h 6.782 z" /><g
           transform="translate(59.6504,83.3428)"
           id="g46"><path
             id="path48"
             style="fill:#546512;fill-opacity:1;fill-rule:nonzero;stroke:none"
             d="m 0,0 h 6.782 v -24.544 h 11.957 v -5.754 l -18.739,0 z" /></g><g
           transform="translate(89.1855,58.2148)"
           id="g50"><path
             id="path52"
             style="fill:#546512;fill-opacity:1;fill-rule:nonzero;stroke:none"
             d="m 0,0 c 0.58,-0.135 1.561,-0.135 2.364,-0.135 6.202,-0.046 10.262,3.371 10.262,10.609 0,6.517 -3.659,9.62 -9.548,9.62 C 1.605,20.094 0.58,19.958 0,19.823 Z m -6.782,24.679 c 2.499,0.449 5.755,0.674 9.146,0.674 5.755,0 9.503,-0.944 12.359,-3.147 3.123,-2.338 5.086,-6.113 5.086,-11.508 0,-5.799 -2.096,-9.8 -4.952,-12.272 -3.168,-2.652 -8.031,-3.91 -13.92,-3.91 -3.525,0 -6.068,0.224 -7.719,0.449 z" /></g><g
           transform="translate(113.499,83.3428)"
           id="g54"><path
             id="path56"
             style="fill:#546512;fill-opacity:1;fill-rule:nonzero;stroke:none"
             d="m 0,0 h 6.782 v -24.544 h 11.957 v -5.754 l -18.739,0 z" /></g><path
           id="path58"
           style="fill:#546512;fill-opacity:1;fill-rule:nonzero;stroke:none"
           d="m 143.078,53.045 h -6.782 v 30.298 h 6.782 z" /><g
           transform="translate(149.0107,83.3428)"
           id="g60"><path
             id="path62"
             style="fill:#546512;fill-opacity:1;fill-rule:nonzero;stroke:none"
             d="M 0,0 H 18.337 V -5.619 H 6.782 v -6.923 h 10.797 v -5.574 H 6.782 V -30.298 H 0 Z" /></g><g
           transform="translate(190.3691,65.8564)"
           id="g64"><path
             id="path66"
             style="fill:#546512;fill-opacity:1;fill-rule:nonzero;stroke:none"
             d="M 0,0 H -11.065 V -7.192 H 1.293 v -5.62 H -17.848 V 17.486 H 0.669 V 11.867 H -11.065 V 5.574 L 0,5.574 Z" /></g><g
           transform="translate(47.4907,13.3359)"
           id="g68"><path
             id="path70"
             style="fill:#546512;fill-opacity:1;fill-rule:nonzero;stroke:none"
             d="m 0,0 c 1.69,-1.02 4.117,-1.796 6.717,-1.796 3.857,0 6.11,1.878 6.11,4.694 0,2.531 -1.56,4.041 -5.503,5.429 -4.767,1.633 -7.714,4 -7.714,7.837 0,4.286 3.77,7.47 9.447,7.47 2.946,0 5.157,-0.654 6.413,-1.347 l -1.04,-2.898 c -0.909,0.53 -2.86,1.305 -5.503,1.305 -3.987,0 -5.504,-2.244 -5.504,-4.122 0,-2.571 1.777,-3.837 5.807,-5.306 4.94,-1.836 7.411,-4.04 7.411,-8.081 0,-4.246 -3.294,-7.96 -10.184,-7.96 -2.817,0 -5.894,0.816 -7.454,1.796 z" /></g><g
           transform="translate(84.4121,21.9082)"
           id="g72"><path
             id="path74"
             style="fill:#546512;fill-opacity:1;fill-rule:nonzero;stroke:none"
             d="M 0,0 H -11.31 V -9.919 H 1.344 v -2.979 h -16.468 v 27.51 H 0.693 V 11.633 H -11.31 V 2.938 l 11.31,0 z" /></g><g
           transform="translate(94.4229,23.6221)"
           id="g76"><path
             id="path78"
             style="fill:#546512;fill-opacity:1;fill-rule:nonzero;stroke:none"
             d="m 0,0 h 3.856 c 4.031,0 6.588,2.082 6.588,5.225 0,3.551 -2.73,5.102 -6.717,5.102 -1.82,0 -3.077,-0.163 -3.727,-0.326 z m -3.771,12.49 c 1.908,0.367 4.681,0.613 7.238,0.613 4.03,0 6.674,-0.735 8.494,-2.287 1.43,-1.183 2.296,-3.06 2.296,-5.224 0,-3.592 -2.47,-6 -5.503,-6.98 V -1.51 c 2.21,-0.735 3.554,-2.694 4.29,-5.552 0.953,-3.835 1.646,-6.489 2.21,-7.55 h -3.9 c -0.477,0.775 -1.126,3.142 -1.907,6.571 -0.867,3.796 -2.469,5.225 -5.893,5.348 H 0 v -11.919 h -3.771 z" /></g><g
           transform="translate(121.0684,9.0098)"
           id="g80"><path
             id="path82"
             style="fill:#546512;fill-opacity:1;fill-rule:nonzero;stroke:none"
             d="M 0,0 -9.577,27.511 H -5.46 L -0.91,13.96 C 0.304,10.245 1.387,6.857 2.21,3.674 H 2.297 C 3.12,6.857 4.29,10.327 5.634,13.919 l 4.94,13.592 h 4.03 L 4.16,0 Z" /></g><path
           id="path84"
           style="fill:#546512;fill-opacity:1;fill-rule:nonzero;stroke:none"
           d="m 142.606,9.01 h -3.813 v 27.511 h 3.813 z" /><g
           transform="translate(169.5615,9.8672)"
           id="g86"><path
             id="path88"
             style="fill:#546512;fill-opacity:1;fill-rule:nonzero;stroke:none"
             d="m 0,0 c -1.344,-0.653 -4.16,-1.307 -7.714,-1.307 -8.233,0 -14.387,4.899 -14.387,13.96 0,8.654 6.197,14.45 15.254,14.45 3.597,0 5.937,-0.735 6.934,-1.225 l -0.954,-2.899 c -1.387,0.654 -3.423,1.144 -5.85,1.144 -6.847,0 -11.397,-4.123 -11.397,-11.348 0,-6.775 4.117,-11.061 11.18,-11.061 2.34,0 4.68,0.449 6.197,1.143 z" /></g><g
           transform="translate(189.4082,21.9082)"
           id="g90"><path
             id="path92"
             style="fill:#546512;fill-opacity:1;fill-rule:nonzero;stroke:none"
             d="M 0,0 H -11.311 V -9.919 H 1.344 v -2.979 h -16.468 v 27.51 H 0.693 V 11.633 H -11.311 V 2.938 L 0,2.938 Z" /></g><g
           transform="translate(335.4844,72.5)"
           id="g94"><path
             id="path96"
             style="fill:#546512;fill-opacity:1;fill-rule:nonzero;stroke:none"
             d="m 0,0 -2.167,1.999 -2.166,-2.333 -3.75,-4.333 C -13.583,-12.667 -20,-6.5 -20,-6.5 -12.5,-18 0,0 0,0" /></g><g
           transform="translate(347.4844,85.5)"
           id="g98"><path
             id="path100"
             style="fill:#546512;fill-opacity:1;fill-rule:nonzero;stroke:none"
             d="m 0,0 c 0,2.209 -1.791,4 -4,4 -2.209,0 -4,-1.791 -4,-4 0,-2.209 1.791,-4 4,-4 2.209,0 4,1.791 4,4" /></g><g
           transform="translate(248.9844,37.5)"
           id="g102"><path
             id="path104"
             style="fill:#546512;fill-opacity:1;fill-rule:nonzero;stroke:none"
             d="M 0,0 V -28 H 9 V -4 C 9,-4 6.5,12.5 50,7.5 V -28 h 9.5 V 15 C 59.5,15 5,20.5 0,0" /></g><g
           transform="translate(407.4844,98.5)"
           id="g106"><path
             id="path108"
             style="fill:#546512;fill-opacity:1;fill-rule:nonzero;stroke:none"
             d="M 0,0 9,9 C 33.5,-16.5 52,-15.5 52,-15.5 22.5,-23.5 0,0 0,0 m 3.5,-58.5 c 0,0 -5,-11.5 -20,2.5 l -9,-9 -0.5,57 h 22.5 c 0,0 18,-34.5 7,-50.5 M -42,2 v 4.5 l 19,21 3.5,0.5 V 25 L -37.5,2 Z M 2.5,52 c 2.762,0 5,-2.238 5,-5 0,-2.762 -2.238,-5 -5,-5 -2.762,0 -5,2.238 -5,5 0,2.762 2.238,5 5,5 M -82,-71.5 V -52 c 0,0 4,11.5 13.5,5 0,0 7,-7 4,-22 0,0 -1.5,-7 -10.5,-1 0,0 -2.5,1 -7,-1.5 m 121.5,62 C 40,8.5 21,63.5 21,63.5 15,76 0.5,78.5 0.5,78.5 -5.5,78 -15,88.5 -15,88.5 L -27.5,102 c -7,6.5 -13,2 -13,2 L -72,91.5 C -92,84 -87,72 -87,72 L -69.5,32 C -81,43.5 -93,73.5 -93,73.5 c -4.5,16 20,23 20,23 h -48.5 c -15.5,8.5 -25.5,1 -25.5,1 -46,-28 -53.5,-59 -53.5,-59 -2.5,-22 0,-69.5 0,-69.5 3,-7 4,-1 4,-1 -2.5,19.5 2,23 2,23 v -80 h 23 v 51.5 l -2.5,-7 -0.5,26 c 0,0 6,21 27.5,33 l 3.5,0.75 4,0.25 6.75,-0.5 15.25,-0.5 c 0,0 -12,-8 18,-44 0,0 3,-2 4,0.5 0,0 -13,18.5 -14,37.5 0,0 11,10 23,11 0,0 11,-5.5 13,-12 0,0 16,-2 16.5,-9 l 9,-22.5 c 0,0 2.5,-7 2,-13 0,0 1.5,-33.5 -10.5,-40.5 0,0 -6,-10 -20.5,0 0,0 -1.5,3 2.5,1.5 0,0 13,-7.5 17,10 0,0 5.5,17 -7.5,27.5 0,0 -14.5,5 -25,-7 V -89 h 8.5 v 7 c 0.172,-0.158 0.333,-0.296 0.5,-0.446 v 0.946 c 2.78,-2.78 6.281,-5.074 8.16,-6.217 0.881,-0.278 1.34,-0.283 1.34,-0.283 h 46 v 10 c 0,0 0.174,-0.151 0.5,-0.4 v 0.9 c 26,-14 44.5,3 44.5,3 22.5,16 22.5,55 22.5,55 11.5,1.5 12.5,4.5 12.5,4.5 -12,1 -15,5.5 -15,5.5" /></g></g></g></g></svg>